<?xml version="1.0" standalone="no"?>
<!DOCTYPE svg PUBLIC "-//W3C//DTD SVG 20010904//EN"
 "http://www.w3.org/TR/2001/REC-SVG-20010904/DTD/svg10.dtd">
<svg version="1.0" xmlns="http://www.w3.org/2000/svg"
 width="512.000000pt" height="512.000000pt" viewBox="0 0 512.000000 512.000000"
 preserveAspectRatio="xMidYMid meet">
<metadata>
Created by potrace 1.11, written by Peter Selinger 2001-2013
</metadata>
<g transform="translate(0.000000,512.000000) scale(0.100000,-0.100000)"
fill="#000000" stroke="none">
<path d="M2360 5114 c-202 -24 -306 -41 -425 -71 -912 -228 -1630 -946 -1858
-1858 -55 -222 -72 -365 -72 -625 0 -260 17 -403 72 -625 228 -912 946 -1630
1858 -1858 222 -55 365 -72 625 -72 260 0 403 17 625 72 912 228 1630 946
1858 1858 55 222 72 365 72 625 0 260 -17 403 -72 625 -225 902 -929 1614
-1828 1851 -207 54 -368 75 -610 79 -115 2 -226 1 -245 -1z m560 -168 c221
-38 394 -86 421 -119 10 -12 42 -55 71 -96 60 -86 70 -65 -83 -171 -246 -172
-414 -390 -485 -629 -4 -11 -9 -10 -27 6 -25 24 -134 94 -220 142 l-58 33 29
-58 c33 -66 76 -166 87 -204 4 -14 -17 11 -46 55 -71 107 -223 259 -331 329
-220 143 -474 216 -746 216 -246 -1 -434 -47 -587 -144 -86 -55 -134 -112
-219 -255 -131 -221 -424 -657 -411 -611 11 39 85 196 133 285 180 329 462
634 786 849 77 52 98 61 194 82 231 50 431 125 599 224 87 51 126 62 313 84
84 10 489 -3 580 -18z m940 -354 c127 -80 420 -320 365 -298 -113 43 -358 52
-489 17 -414 -110 -707 -534 -865 -1251 -49 -220 -48 -210 -16 -210 23 0 25
-2 16 -14 -9 -11 -9 -20 -2 -34 16 -29 114 -116 165 -146 106 -62 299 -115
419 -116 37 0 67 -4 67 -10 0 -13 -60 -110 -68 -110 -4 1 -34 7 -67 15 -159
39 -450 -8 -650 -105 -44 -21 -143 -62 -220 -90 -286 -107 -512 -215 -684
-327 -236 -153 -343 -284 -387 -470 -20 -84 -14 -338 10 -422 31 -112 92 -206
168 -261 21 -16 35 -30 31 -33 -4 -2 -60 -8 -123 -11 -63 -4 -122 -9 -132 -12
-12 -3 -53 48 -160 198 l-143 203 -5 -100 c-3 -56 -12 -111 -19 -125 -31 -55
-64 -90 -86 -90 -32 0 -96 50 -155 121 -89 107 -86 96 -59 199 l23 90 72 0
c86 0 178 26 249 71 56 35 175 147 175 165 0 6 -12 19 -26 29 -25 16 -25 16
-98 -53 -78 -74 -148 -113 -234 -131 -63 -13 -122 -14 -122 -3 0 5 25 26 55
47 53 36 110 97 149 158 10 16 16 30 14 32 -2 1 -17 10 -35 19 -31 16 -33 15
-44 -6 -16 -31 -89 -118 -99 -118 -4 0 -3 21 2 47 4 27 8 64 7 83 -1 19 7 62
19 95 11 33 23 79 27 103 l7 42 -39 0 -39 0 -13 -62 c-23 -114 -100 -225 -188
-275 l-39 -22 23 112 c48 239 55 576 18 816 -19 120 -65 311 -96 393 -20 55
-22 56 -47 45 -44 -18 -45 -23 -23 -81 85 -229 132 -590 111 -862 -6 -82 -15
-167 -19 -189 l-7 -40 -13 60 c-28 136 -86 341 -146 522 -85 254 -203 553
-221 560 -19 7 -18 45 6 189 l19 120 158 156 c189 185 219 213 345 311 315
245 627 368 933 369 351 1 627 -134 802 -392 112 -165 188 -409 200 -642 l6
-116 54 -7 c30 -4 57 -4 60 -1 4 3 1 68 -5 143 -49 580 -328 966 -783 1088
-423 113 -864 3 -1305 -326 -57 -42 -101 -72 -97 -66 4 7 43 68 88 137 45 69
118 187 164 262 94 157 146 210 257 264 40 19 117 47 171 61 87 23 118 26 268
27 143 1 186 -3 274 -22 337 -76 586 -244 741 -502 30 -51 80 -122 111 -158
30 -37 68 -87 84 -112 16 -25 30 -47 32 -49 1 -2 25 2 52 9 36 8 51 17 51 28
0 10 -15 76 -34 147 -30 111 -32 127 -15 106 10 -13 19 -30 19 -38 0 -10 6
-13 16 -9 9 3 33 6 53 6 l38 0 6 74 c25 287 283 584 707 810 l84 45 36 -21
c19 -12 60 -37 90 -56z m190 -407 c10 -48 38 -83 104 -129 91 -65 121 -77 236
-101 l105 -21 -59 -38 c-100 -65 -200 -89 -273 -68 -11 4 -41 34 -66 67 -118
161 -259 244 -415 246 l-67 1 55 25 c86 39 155 52 270 50 l104 -2 6 -30z
m-265 -200 c152 -39 258 -126 329 -267 81 -164 120 -347 96 -461 -8 -41 -28
-81 -73 -148 -60 -87 -65 -92 -124 -114 -97 -37 -170 -89 -277 -199 l-100
-101 -173 0 c-123 0 -176 4 -185 13 -9 9 -7 12 11 12 33 0 87 59 101 110 38
142 -99 269 -200 184 -44 -37 -60 -75 -60 -139 0 -63 17 -103 56 -134 38 -30
11 -27 -100 10 -110 36 -148 67 -140 113 55 311 181 693 293 884 62 107 94
138 185 182 139 67 248 84 361 55z m493 -263 c51 -35 91 -66 89 -68 -2 -2 -35
2 -73 9 l-69 12 -34 64 c-18 35 -27 60 -20 56 8 -5 56 -37 107 -73z m182 -560
c185 -93 306 -167 418 -257 76 -61 82 -69 82 -103 0 -20 3 -47 6 -59 5 -18 2
-23 -14 -23 -13 0 -24 -11 -33 -31 -12 -30 -11 -33 19 -58 l32 -26 0 -105 -1
-105 -42 85 c-65 130 -112 196 -216 301 -65 65 -122 111 -176 143 -86 50 -213
95 -273 97 -20 1 -47 4 -60 8 l-23 6 31 43 c29 40 62 104 74 145 3 9 9 17 13
17 4 0 78 -35 163 -78z m-1150 -242 c11 -11 20 -29 20 -40 0 -27 -35 -60 -63
-60 -33 0 -67 28 -67 55 0 26 42 65 71 65 11 0 28 -9 39 -20z m1058 -42 c103
-42 171 -88 262 -178 136 -134 222 -291 257 -467 20 -102 10 -174 -37 -270
-129 -262 -551 -455 -960 -440 -197 7 -319 61 -406 180 -41 55 -44 64 -44 121
1 85 24 208 50 262 27 56 59 78 104 72 34 -4 35 -3 29 27 -9 54 -24 93 -49
130 l-24 36 49 79 c150 241 320 411 464 462 76 27 219 20 305 -14z m-1895
-805 c-12 -41 -8 -174 5 -205 l11 -28 61 39 c173 112 370 117 574 16 122 -60
127 -67 133 -165 22 -352 -310 -650 -957 -858 -173 -56 -268 -74 -385 -75
-164 0 -257 49 -315 167 -63 128 -78 365 -30 500 57 167 214 306 528 469 117
61 353 166 375 167 4 0 4 -12 0 -27z m2327 -410 c-43 -108 -160 -330 -226
-429 -118 -177 -340 -434 -363 -420 -6 4 -11 34 -11 69 0 60 -22 288 -35 373
l-7 41 52 22 c96 41 147 79 163 120 14 34 23 41 104 74 103 43 229 118 293
175 25 22 47 38 49 36 2 -2 -7 -29 -19 -61z m-1115 -229 c31 -10 105 -19 195
-23 l145 -6 17 -100 c23 -138 47 -390 49 -509 l2 -100 -84 -63 c-97 -74 -228
-158 -234 -151 -3 3 -23 70 -45 149 -21 79 -80 277 -131 439 -50 162 -92 300
-93 307 -1 10 97 70 119 72 6 0 33 -7 60 -15z m595 11 c0 -6 -117 -65 -130
-65 -5 0 -10 9 -10 19 0 16 11 22 58 31 31 6 62 13 67 15 6 2 11 4 13 4 1 1 2
-1 2 -4z m-894 -78 c3 -6 132 -422 173 -558 85 -284 111 -388 98 -396 -21 -13
-130 -64 -192 -89 l-60 -25 -29 33 c-92 106 -213 325 -322 582 l-65 151 38 30
c75 59 176 161 221 223 l45 64 46 -7 c25 -4 46 -8 47 -8z m-470 -422 c13 -31
24 -58 24 -60 0 -8 -68 -34 -128 -49 l-55 -15 -29 30 c-16 16 -28 34 -26 39 2
8 172 108 186 110 2 0 14 -25 28 -55z m127 -287 c41 -84 103 -197 137 -251 33
-53 59 -101 56 -106 -19 -30 -117 -89 -166 -99 -151 -32 -262 -44 -435 -48
l-190 -5 30 26 c50 43 283 151 421 195 l131 42 -7 32 c-6 28 -9 31 -41 28
-115 -10 -448 -157 -583 -258 -39 -30 -78 -54 -86 -54 -22 0 -250 38 -284 48
-27 7 -25 9 60 62 49 29 179 122 289 205 316 238 370 275 402 275 21 1 177 48
190 59 1 0 35 -68 76 -151z m-1133 22 l65 0 47 -142 c44 -131 46 -142 30 -154
-29 -22 -81 -48 -85 -44 -10 12 -197 329 -202 342 -5 13 0 14 37 7 24 -4 72
-8 108 -9z m-660 -112 c17 -12 37 -33 46 -46 l15 -23 -28 15 c-15 8 -50 31
-78 51 -49 36 -49 37 -17 31 18 -3 46 -16 62 -28z"/>
<path d="M1429 3781 c-47 -10 -124 -37 -170 -58 -143 -68 -230 -145 -325 -288
-22 -33 -55 -80 -72 -105 -121 -170 -103 -473 47 -824 137 -319 286 -482 501
-547 61 -19 97 -23 190 -22 146 1 237 24 385 98 269 134 475 352 530 561 19
73 19 192 0 286 -7 40 -19 121 -24 181 -38 394 -217 638 -520 708 -129 30
-425 36 -542 10z m321 -246 c165 -39 291 -112 426 -249 153 -157 247 -319 275
-480 16 -95 0 -186 -53 -296 -34 -71 -57 -101 -137 -180 -124 -123 -202 -176
-279 -187 -212 -30 -428 22 -623 149 -177 116 -442 413 -478 536 -8 29 -14
101 -15 187 -1 114 3 150 18 195 47 136 259 269 517 325 87 18 268 18 349 0z"/>
<path d="M1585 3345 l55 -77 1 -97 0 -96 34 105 c19 58 31 108 27 111 -22 19
-149 116 -159 123 -7 4 12 -27 42 -69z"/>
<path d="M1255 3295 c3 -33 8 -73 11 -89 l6 -29 -62 5 -62 4 58 -29 c37 -18
81 -52 117 -90 l58 -62 -32 65 c-18 36 -47 115 -66 175 -32 106 -33 108 -28
50z"/>
<path d="M1978 3200 c-43 -22 -81 -48 -86 -57 -15 -28 -62 -163 -57 -163 2 0
19 21 36 48 18 26 69 84 113 130 44 45 78 82 75 82 -2 -1 -39 -19 -81 -40z"/>
<path d="M2219 2921 l-74 -109 -102 -57 c-57 -32 -103 -59 -103 -61 0 -5 87 3
126 12 18 3 38 -16 104 -96 45 -55 83 -100 86 -100 5 0 -47 97 -88 167 l-19
32 75 161 c41 88 73 160 72 160 -1 0 -36 -49 -77 -109z"/>
<path d="M1452 2969 c-58 -29 -117 -99 -163 -193 -43 -89 -47 -122 -20 -181
21 -48 63 -86 135 -122 77 -40 195 -44 267 -11 76 35 114 70 145 135 49 98 33
214 -40 300 -15 17 -54 46 -88 62 -78 39 -169 43 -236 10z m170 -189 c10 -13
18 -39 18 -60 0 -31 -7 -44 -37 -70 -31 -28 -42 -31 -76 -27 -49 7 -97 50 -97
88 0 30 33 76 64 90 36 15 108 4 128 -21z"/>
<path d="M1920 2410 c18 -48 30 -102 31 -133 l1 -52 19 62 20 62 56 -24 c31
-14 57 -24 59 -22 3 3 -115 107 -187 165 l-29 23 30 -81z"/>
<path d="M1613 2347 l-53 -33 45 -44 c49 -48 53 -47 30 6 -14 34 -14 37 11 70
15 19 25 34 23 34 -2 0 -28 -15 -56 -33z"/>
<path d="M3585 3813 c-16 -43 -48 -127 -72 -188 l-44 -110 56 -50 55 -50 -50
-75 c-27 -41 -49 -79 -50 -83 0 -4 43 29 95 74 52 45 95 83 95 85 0 1 -30 21
-67 44 -38 24 -69 44 -70 45 -2 1 4 25 12 53 19 61 75 325 71 329 -2 2 -16
-32 -31 -74z"/>
<path d="M3240 3629 c1 -8 8 -41 16 -74 9 -33 19 -118 23 -190 l6 -130 33 127
c17 70 32 129 32 131 0 2 -25 37 -55 77 -30 40 -55 67 -55 59z"/>
<path d="M3977 3383 l-118 -76 -42 33 c-23 18 -47 37 -53 42 -8 6 -25 -28 -55
-109 -44 -121 -58 -141 -144 -211 -37 -31 -33 -29 62 17 l102 51 22 70 c13 38
27 70 31 70 5 0 36 -14 69 -31 34 -17 62 -29 63 -27 2 2 40 53 86 113 46 61
88 116 93 123 14 18 12 17 -116 -65z"/>
</g>
</svg>
